<svg version="1.1" id="Layer_1" xmlns="http://www.w3.org/2000/svg" xmlns:xlink="http://www.w3.org/1999/xlink" x="0px" y="0px"
	 width="100%" viewBox="0 0 384 304" enable-background="new 0 0 384 304" xml:space="preserve">
<path fill="#000000" opacity="1.000000" stroke="none" 
	d="
M353.023743,148.247559 
	C355.922638,153.326385 354.926056,157.766724 352.371948,162.245636 
	C329.028168,203.181931 305.615967,244.080139 282.531677,285.162506 
	C278.702209,291.977722 274.047119,294.567780 266.183960,294.514160 
	C218.874283,294.191559 171.561035,294.290802 124.249741,294.460358 
	C119.047615,294.478973 115.865326,292.586884 113.398209,288.214905 
	C89.254654,245.429703 65.065849,202.669861 40.765636,159.973541 
	C38.242126,155.539658 39.114330,151.908157 41.434029,147.863663 
	C58.668831,117.813950 75.808128,87.709457 92.970383,57.618160 
	C99.983772,45.321293 107.111191,33.086498 113.911911,20.672909 
	C116.269844,16.368900 119.179955,14.544945 124.206337,14.561284 
	C172.683868,14.718866 221.162323,14.728512 269.639801,14.563663 
	C275.007080,14.545409 278.324432,16.442099 280.895660,21.004751 
	C297.247009,50.020332 313.731720,78.960777 330.172150,107.926178 
	C337.734894,121.250465 345.296753,134.575226 353.023743,148.247559 
M180.218018,95.339241 
	C169.257401,88.645454 158.296783,81.951675 146.639557,74.832466 
	C146.639557,132.387924 146.639557,188.551514 146.639557,245.689590 
	C195.010971,218.196014 242.638077,191.125473 291.296448,163.468796 
	C253.723648,140.432800 217.274445,118.085670 180.218018,95.339241 
M282.342743,87.993340 
	C279.138672,70.359421 275.904938,52.730797 272.746643,35.088680 
	C271.645355,28.936993 270.990417,28.407923 264.864044,30.411266 
	C229.608551,41.939976 194.366196,53.508926 159.128128,65.090843 
	C157.296432,65.692879 155.221741,65.947754 153.577896,68.428612 
	C199.952957,96.854523 246.236313,125.224228 293.449768,154.164047 
	C292.938751,149.899475 292.707947,146.805313 292.180389,143.762589 
	C289.004852,125.447060 285.761230,107.143349 282.342743,87.993340 
M135.738907,112.500046 
	C135.738907,101.168724 135.738907,89.837410 135.738907,77.454468 
	C134.047409,78.918266 133.403168,79.426353 132.814545,79.992294 
	C107.850708,103.993797 82.959534,128.071716 57.857540,151.927795 
	C54.195774,155.407806 54.162899,157.424606 57.688705,161.049713 
	C79.977249,183.965912 101.998940,207.141434 124.187073,230.155823 
	C127.677193,233.775909 130.899628,237.748688 135.738632,241.152924 
	C135.738632,198.046555 135.738632,155.773300 135.738907,112.500046 
M278.479218,238.101349 
	C283.370789,216.925995 288.262360,195.750641 293.153961,174.575287 
	C292.630005,174.316345 292.106049,174.057404 291.582092,173.798462 
	C246.032043,199.790497 200.481995,225.782532 154.262527,252.156555 
	C155.847397,252.961578 156.393341,253.377686 157.004913,253.529694 
	C192.348282,262.313354 227.717636,270.993958 263.019135,279.942352 
	C267.405640,281.054260 268.655304,279.439056 269.501953,275.762726 
	C272.336090,263.456726 275.306702,251.182205 278.479218,238.101349 
M205.049438,40.452038 
	C220.710327,35.327797 236.371216,30.203554 252.032089,25.079311 
	C251.940796,24.919735 251.849503,24.760160 251.758209,24.600586 
	C210.432617,24.600586 169.107010,24.600586 127.748009,24.600586 
	C127.748009,25.727558 127.588638,26.282495 127.771332,26.680355 
	C132.285751,36.511375 136.826233,46.330475 141.386154,56.140499 
	C142.938110,59.479279 145.283752,59.966591 148.764282,58.805496 
	C167.230179,52.645363 185.766617,46.696720 205.049438,40.452038 
M318.735168,106.704903 
	C307.563416,86.969849 296.391663,67.234802 285.219879,47.499756 
	C284.853088,50.456791 285.238007,53.060051 285.694366,55.650730 
	C291.245972,87.166672 296.849426,118.673576 302.339142,150.200287 
	C303.753510,158.322678 304.043060,158.641785 312.354340,156.829773 
	C314.462585,156.370102 316.613281,156.086792 318.699707,155.548691 
	C326.479889,153.542038 334.514679,152.478683 342.835632,149.504929 
	C334.728271,135.109558 326.909393,121.226341 318.735168,106.704903 
M110.151672,45.582569 
	C92.623169,76.472847 75.094658,107.363129 57.566154,138.253418 
	C62.428444,134.772186 66.681602,130.863556 70.858513,126.875069 
	C91.316788,107.339714 111.750710,87.778854 132.206512,68.240906 
	C134.156952,66.377975 135.379135,64.397003 134.080627,61.626732 
	C129.492722,51.838726 124.930786,42.038540 120.327934,32.257595 
	C120.058014,31.684011 119.561241,31.156626 118.306969,31.448761 
	C115.809135,35.760494 113.151558,40.347973 110.151672,45.582569 
M304.696472,227.251328 
	C317.361908,204.937698 330.027313,182.624084 342.692749,160.310471 
	C342.355438,159.972794 342.018127,159.635132 341.680817,159.297455 
	C331.507538,161.534637 321.386902,164.068558 311.139191,165.886063 
	C305.872620,166.820129 303.486694,169.401352 302.333130,174.410339 
	C295.842743,202.592743 289.112091,230.719788 282.604279,258.898254 
	C282.061096,261.250275 280.929626,263.735718 281.808044,267.586090 
	C289.727844,253.635498 297.034943,240.764160 304.696472,227.251328 
M204.346436,274.333496 
	C185.651978,269.642029 166.935303,265.035950 148.281784,260.187012 
	C144.550293,259.217041 142.306549,260.101257 140.472885,263.375153 
	C137.707672,268.312225 134.582626,273.048431 131.840973,277.997681 
	C130.624664,280.193298 128.496536,282.125427 128.774750,285.297852 
	C167.735306,285.297852 206.444305,285.297852 245.153305,285.297852 
	C245.163727,285.135376 245.174164,284.972900 245.184586,284.810425 
	C231.842407,281.368317 218.500214,277.926178 204.346436,274.333496 
M103.280006,251.305603 
	C108.591850,260.608612 113.903694,269.911621 119.649696,279.974976 
	C123.805649,273.225433 127.387383,267.477783 130.898788,261.687469 
	C134.943756,255.017273 134.781418,253.925323 129.369568,248.341263 
	C109.922058,228.274948 90.488525,208.195068 71.026337,188.143021 
	C69.542984,186.614700 68.164551,184.830872 64.734344,183.682983 
	C77.905472,206.778641 90.418411,228.720169 103.280006,251.305603 
z"/>
</svg>